# xmcd CD database file
#
# Track frame offsets:
#	150
#	14434
#	31320
#	46442
#	59860
#	68455
#	93647
#	105555
#	120700
#	131427
#	151282
#	168925
#	182659
#	198915
#	207387
#	222285
#	233617
#	244595
#	257190
#	274775
#	285405
#
# Disc length: 3968 seconds
#
# Revision: 5
# Processed by: cddbd v1.5.2PL0 Copyright (c) Steve Scherf et al.
# Submitted via: CDex 1.77
#
DISCID=2c0f7e15
DTITLE=The Cathedrals - Through the Years (21 Fav. Hymns)
DYEAR=1999
DGENRE=Southern Gpspel
TTITLE0=His Hand In Mine
TTITLE1=Somebody Touched Me
TTITLE2=Mansion Over The Hilltop
TTITLE3=Victory In Jesus
TTITLE4=Sweet Bye And Bye
TTITLE5=I Know Who Holds Tomorrow
TTITLE6=Heaven Is My Home
TTITLE7=It Is No Secret
TTITLE8=How Great Thou Art
TTITLE9=Oh, What A Savior
TTITLE10=Because He Lives
TTITLE11=The Old Account Was Settled Long Ago
TTITLE12=He Looked Beyond My Faults
TTITLE13=There Is A Fountain
TTITLE14=Softly And Tenderly
TTITLE15=Farther Along
TTITLE16=Just A Little Talk With Jesus
TTITLE17=Joyful, Joyful We Adore Thee
TTITLE18=Hide Thou Me
TTITLE19=Since Jesus Came Into My Heart
TTITLE20=We Shall See Jesus
EXTD=YEAR: 1999
EXTT0=
EXTT1=
EXTT2=
EXTT3=
EXTT4=
EXTT5=
EXTT6=
EXTT7=
EXTT8=
EXTT9=
EXTT10=
EXTT11=
EXTT12=
EXTT13=
EXTT14=
EXTT15=
EXTT16=
EXTT17=
EXTT18=
EXTT19=
EXTT20=
PLAYORDER=
